<svg xmlns="http://www.w3.org/2000/svg" width="24" height="24" viewBox="0 0 16 16" fill="none">
<path d="M5.12004 12.28H9.60004V5.88H8.32004C8.02138 5.88 7.77604 5.95467 7.58404 6.104C7.39204 6.25333 7.16271 6.472 6.89604 6.76C6.68271 6.99467 6.43471 7.23733 6.15204 7.488C5.86938 7.73867 5.52538 7.92267 5.12004 8.04V12.28ZM3.84004 13.56V8.024C3.28538 7.87467 2.82671 7.576 2.46404 7.128C2.10138 6.68 1.92004 6.15733 1.92004 5.56C1.92004 4.99467 2.08271 4.49333 2.40804 4.056C2.73338 3.61867 3.15204 3.31467 3.66404 3.144C3.90938 2.632 4.27471 2.216 4.76004 1.896C5.24538 1.576 5.79204 1.416 6.40004 1.416C6.77338 1.416 7.12271 1.48 7.44804 1.608C7.77338 1.736 8.06938 1.90667 8.33604 2.12C8.44271 2.09867 8.54404 2.08 8.64004 2.064C8.73604 2.048 8.84271 2.04 8.96004 2.04C9.66404 2.04 10.2667 2.29067 10.768 2.792C11.2694 3.29333 11.52 3.896 11.52 4.6C11.52 4.83467 11.4907 5.05867 11.432 5.272C11.3734 5.48533 11.2854 5.688 11.168 5.88H12.16C12.512 5.88 12.8134 6.00533 13.064 6.256C13.3147 6.50667 13.44 6.808 13.44 7.16V11C13.44 11.352 13.3147 11.6533 13.064 11.904C12.8134 12.1547 12.512 12.28 12.16 12.28H10.88V13.56H3.84004ZM3.20004 5.56C3.20004 5.912 3.32538 6.21333 3.57604 6.464C3.82671 6.71467 4.12804 6.84 4.48004 6.84C4.82138 6.84 5.11204 6.728 5.35204 6.504C5.59204 6.28 5.84004 6.02933 6.09604 5.752C6.36271 5.464 6.66404 5.2 7.00004 4.96C7.33604 4.72 7.77604 4.6 8.32004 4.6H10.24C10.24 4.248 10.1147 3.94667 9.86404 3.696C9.61338 3.44533 9.31204 3.32 8.96004 3.32C8.69338 3.32 8.46938 3.35467 8.28804 3.424L8.01604 3.528L7.52004 3.112C7.40271 3.016 7.25071 2.92267 7.06404 2.832C6.87738 2.74133 6.65604 2.696 6.40004 2.696C6.05871 2.696 5.74671 2.78667 5.46404 2.968C5.18138 3.14933 4.96538 3.39467 4.81604 3.704L4.59204 4.184L4.08004 4.36C3.81338 4.44533 3.60004 4.59733 3.44004 4.816C3.28004 5.03467 3.20004 5.28267 3.20004 5.56ZM10.88 11H12.16V7.16H10.88V11Z" fill="#1C1B1F"/>
</svg>