<svg xmlns="http://www.w3.org/2000/svg" width="24" height="24" viewBox="0 0 12 13" fill="none">
<path d="M3 10.62L3.75 8.745C3.825 8.55333 3.94583 8.40125 4.1125 8.28875C4.27917 8.17625 4.46667 8.12 4.675 8.12H5.5V6.1075C4.225 6.06583 3.15625 5.87833 2.29375 5.545C1.43125 5.21166 1 4.82 1 4.37C1 3.88666 1.4875 3.47416 2.4625 3.1325C3.4375 2.79083 4.61667 2.62 6 2.62C7.39167 2.62 8.57292 2.79083 9.54375 3.1325C10.5146 3.47416 11 3.88666 11 4.37C11 4.82 10.5688 5.21166 9.70625 5.545C8.84375 5.87833 7.775 6.06583 6.5 6.1075V8.12H7.325C7.525 8.12 7.71042 8.17625 7.88125 8.28875C8.05208 8.40125 8.175 8.55333 8.25 8.745L9 10.62H8L7.4 9.12H4.6L4 10.62H3ZM6 5.12C6.80833 5.12 7.57083 5.04916 8.2875 4.9075C9.00417 4.76583 9.52917 4.58666 9.8625 4.37C9.52917 4.15333 9.00417 3.97416 8.2875 3.8325C7.57083 3.69083 6.80833 3.62 6 3.62C5.19167 3.62 4.42917 3.69083 3.7125 3.8325C2.99583 3.97416 2.47083 4.15333 2.1375 4.37C2.47083 4.58666 2.99583 4.76583 3.7125 4.9075C4.42917 5.04916 5.19167 5.12 6 5.12Z" fill="#1C1B1F"/>
</svg>