<svg xmlns="http://www.w3.org/2000/svg" width="24" height="24" viewBox="0 0 16 16" fill="none">
<path d="M9.63901 10.521L10.521 9.639L8.19001 7.308V4.41H6.93001V7.812L9.63901 10.521ZM7.56001 13.86C6.68851 13.86 5.86951 13.6946 5.10301 13.3639C4.33651 13.0331 3.66976 12.5843 3.10276 12.0173C2.53576 11.4503 2.08688 10.7835 1.75613 10.017C1.42538 9.2505 1.26001 8.4315 1.26001 7.56C1.26001 6.6885 1.42538 5.8695 1.75613 5.103C2.08688 4.3365 2.53576 3.66975 3.10276 3.10275C3.66976 2.53575 4.33651 2.08688 5.10301 1.75613C5.86951 1.42538 6.68851 1.26 7.56001 1.26C8.43151 1.26 9.25051 1.42538 10.017 1.75613C10.7835 2.08688 11.4503 2.53575 12.0173 3.10275C12.5843 3.66975 13.0331 4.3365 13.3639 5.103C13.6946 5.8695 13.86 6.6885 13.86 7.56C13.86 8.4315 13.6946 9.2505 13.3639 10.017C13.0331 10.7835 12.5843 11.4503 12.0173 12.0173C11.4503 12.5843 10.7835 13.0331 10.017 13.3639C9.25051 13.6946 8.43151 13.86 7.56001 13.86ZM7.56001 12.6C8.95651 12.6 10.1456 12.1091 11.1274 11.1274C12.1091 10.1456 12.6 8.9565 12.6 7.56C12.6 6.1635 12.1091 4.97438 11.1274 3.99263C10.1456 3.01088 8.95651 2.52 7.56001 2.52C6.16351 2.52 4.97438 3.01088 3.99263 3.99263C3.01088 4.97438 2.52001 6.1635 2.52001 7.56C2.52001 8.9565 3.01088 10.1456 3.99263 11.1274C4.97438 12.1091 6.16351 12.6 7.56001 12.6Z" fill="#1C1B1F"/>
</svg>