<svg xmlns="http://www.w3.org/2000/svg" width="24" height="24" viewBox="0 0 14 15" fill="none">
<path d="M4.66667 12.73V11.5633H6.41667V9.17166C5.58056 9.03555 4.88542 8.64666 4.33125 8.005C3.77708 7.36333 3.5 6.605 3.5 5.73V2.23H10.5V5.73C10.5 6.605 10.2229 7.36333 9.66875 8.005C9.11458 8.64666 8.41944 9.03555 7.58333 9.17166V11.5633H9.33333V12.73H4.66667ZM7 8.06333C7.54444 8.06333 8.02083 7.89805 8.42917 7.5675C8.8375 7.23694 9.10972 6.81888 9.24583 6.31333H4.75417C4.89028 6.81888 5.1625 7.23694 5.57083 7.5675C5.97917 7.89805 6.45556 8.06333 7 8.06333ZM4.66667 5.14666H9.33333V3.39666H4.66667V5.14666Z" fill="#1C1B1F"/>
</svg>